<mxfile host="app.diagrams.net" modified="2023-11-26T16:50:39.694Z" agent="Mozilla/5.0 (Windows NT 10.0; Win64; x64) AppleWebKit/537.36 (KHTML, like Gecko) Chrome/119.0.0.0 Safari/537.36" etag="jkZGa-bg71nLaiI5NHRa" version="22.1.4" type="github">
  <diagram name="Страница — 1" id="QdRjNQQR4QtvAwV5bxlI">
    <mxGraphModel dx="1050" dy="565" grid="1" gridSize="10" guides="1" tooltips="1" connect="1" arrows="1" fold="1" page="1" pageScale="1" pageWidth="827" pageHeight="1169" math="0" shadow="0">
      <root>
        <mxCell id="0" />
        <mxCell id="1" parent="0" />
        <mxCell id="7c0A-dP-2c0LiIIa3m8O-8" value="" style="edgeStyle=orthogonalEdgeStyle;rounded=0;orthogonalLoop=1;jettySize=auto;html=1;" edge="1" parent="1" source="7c0A-dP-2c0LiIIa3m8O-1" target="7c0A-dP-2c0LiIIa3m8O-2">
          <mxGeometry relative="1" as="geometry" />
        </mxCell>
        <mxCell id="7c0A-dP-2c0LiIIa3m8O-1" value="Beginning" style="ellipse;whiteSpace=wrap;html=1;" vertex="1" parent="1">
          <mxGeometry x="330" y="40" width="120" height="40" as="geometry" />
        </mxCell>
        <mxCell id="7c0A-dP-2c0LiIIa3m8O-9" value="" style="edgeStyle=orthogonalEdgeStyle;rounded=0;orthogonalLoop=1;jettySize=auto;html=1;" edge="1" parent="1" source="7c0A-dP-2c0LiIIa3m8O-2" target="7c0A-dP-2c0LiIIa3m8O-3">
          <mxGeometry relative="1" as="geometry" />
        </mxCell>
        <mxCell id="7c0A-dP-2c0LiIIa3m8O-2" value="Input temp1" style="shape=parallelogram;perimeter=parallelogramPerimeter;whiteSpace=wrap;html=1;fixedSize=1;" vertex="1" parent="1">
          <mxGeometry x="330" y="110" width="120" height="60" as="geometry" />
        </mxCell>
        <mxCell id="7c0A-dP-2c0LiIIa3m8O-10" value="" style="edgeStyle=orthogonalEdgeStyle;rounded=0;orthogonalLoop=1;jettySize=auto;html=1;" edge="1" parent="1" source="7c0A-dP-2c0LiIIa3m8O-3" target="7c0A-dP-2c0LiIIa3m8O-5">
          <mxGeometry relative="1" as="geometry" />
        </mxCell>
        <mxCell id="7c0A-dP-2c0LiIIa3m8O-3" value="for(int i=0; i&amp;lt;temp1; i++)" style="shape=hexagon;perimeter=hexagonPerimeter2;whiteSpace=wrap;html=1;fixedSize=1;" vertex="1" parent="1">
          <mxGeometry x="330" y="200" width="120" height="80" as="geometry" />
        </mxCell>
        <mxCell id="7c0A-dP-2c0LiIIa3m8O-4" value="mas[i]=rand()" style="rounded=0;whiteSpace=wrap;html=1;" vertex="1" parent="1">
          <mxGeometry x="330" y="300" width="120" height="60" as="geometry" />
        </mxCell>
        <mxCell id="7c0A-dP-2c0LiIIa3m8O-12" value="" style="edgeStyle=orthogonalEdgeStyle;rounded=0;orthogonalLoop=1;jettySize=auto;html=1;" edge="1" parent="1" source="7c0A-dP-2c0LiIIa3m8O-5" target="7c0A-dP-2c0LiIIa3m8O-6">
          <mxGeometry relative="1" as="geometry" />
        </mxCell>
        <mxCell id="7c0A-dP-2c0LiIIa3m8O-13" value="" style="edgeStyle=orthogonalEdgeStyle;rounded=0;orthogonalLoop=1;jettySize=auto;html=1;" edge="1" parent="1" source="7c0A-dP-2c0LiIIa3m8O-5" target="7c0A-dP-2c0LiIIa3m8O-7">
          <mxGeometry relative="1" as="geometry" />
        </mxCell>
        <mxCell id="7c0A-dP-2c0LiIIa3m8O-5" value="if(rand()%2=0)" style="rhombus;whiteSpace=wrap;html=1;" vertex="1" parent="1">
          <mxGeometry x="350" y="380" width="80" height="80" as="geometry" />
        </mxCell>
        <mxCell id="7c0A-dP-2c0LiIIa3m8O-6" value="mas[i]=mas[i]*-1" style="rounded=0;whiteSpace=wrap;html=1;" vertex="1" parent="1">
          <mxGeometry x="330" y="480" width="120" height="60" as="geometry" />
        </mxCell>
        <mxCell id="7c0A-dP-2c0LiIIa3m8O-7" value="Output mas[i]" style="shape=parallelogram;perimeter=parallelogramPerimeter;whiteSpace=wrap;html=1;fixedSize=1;" vertex="1" parent="1">
          <mxGeometry x="200" y="390" width="120" height="60" as="geometry" />
        </mxCell>
        <mxCell id="7c0A-dP-2c0LiIIa3m8O-11" value="" style="endArrow=classic;html=1;rounded=0;exitX=0.5;exitY=1;exitDx=0;exitDy=0;entryX=0.5;entryY=0;entryDx=0;entryDy=0;" edge="1" parent="1" source="7c0A-dP-2c0LiIIa3m8O-3" target="7c0A-dP-2c0LiIIa3m8O-4">
          <mxGeometry width="50" height="50" relative="1" as="geometry">
            <mxPoint x="390" y="320" as="sourcePoint" />
            <mxPoint x="440" y="270" as="targetPoint" />
          </mxGeometry>
        </mxCell>
        <mxCell id="7c0A-dP-2c0LiIIa3m8O-14" value="" style="endArrow=none;html=1;rounded=0;exitX=0;exitY=0.5;exitDx=0;exitDy=0;" edge="1" parent="1" source="7c0A-dP-2c0LiIIa3m8O-6">
          <mxGeometry width="50" height="50" relative="1" as="geometry">
            <mxPoint x="390" y="320" as="sourcePoint" />
            <mxPoint x="260" y="510" as="targetPoint" />
          </mxGeometry>
        </mxCell>
        <mxCell id="7c0A-dP-2c0LiIIa3m8O-15" value="" style="endArrow=classic;html=1;rounded=0;entryX=0.5;entryY=1;entryDx=0;entryDy=0;" edge="1" parent="1" target="7c0A-dP-2c0LiIIa3m8O-7">
          <mxGeometry width="50" height="50" relative="1" as="geometry">
            <mxPoint x="260" y="510" as="sourcePoint" />
            <mxPoint x="440" y="270" as="targetPoint" />
          </mxGeometry>
        </mxCell>
        <mxCell id="7c0A-dP-2c0LiIIa3m8O-16" value="" style="endArrow=none;html=1;rounded=0;exitX=0.5;exitY=0;exitDx=0;exitDy=0;" edge="1" parent="1" source="7c0A-dP-2c0LiIIa3m8O-7">
          <mxGeometry width="50" height="50" relative="1" as="geometry">
            <mxPoint x="390" y="320" as="sourcePoint" />
            <mxPoint x="260" y="240" as="targetPoint" />
          </mxGeometry>
        </mxCell>
        <mxCell id="7c0A-dP-2c0LiIIa3m8O-17" value="" style="endArrow=classic;html=1;rounded=0;entryX=0;entryY=0.5;entryDx=0;entryDy=0;" edge="1" parent="1" target="7c0A-dP-2c0LiIIa3m8O-3">
          <mxGeometry width="50" height="50" relative="1" as="geometry">
            <mxPoint x="260" y="240" as="sourcePoint" />
            <mxPoint x="440" y="270" as="targetPoint" />
          </mxGeometry>
        </mxCell>
        <mxCell id="7c0A-dP-2c0LiIIa3m8O-18" value="N=0" style="rounded=0;whiteSpace=wrap;html=1;" vertex="1" parent="1">
          <mxGeometry x="470" y="210" width="120" height="60" as="geometry" />
        </mxCell>
        <mxCell id="7c0A-dP-2c0LiIIa3m8O-19" value="" style="endArrow=none;html=1;rounded=0;entryX=0.5;entryY=1;entryDx=0;entryDy=0;" edge="1" parent="1" target="7c0A-dP-2c0LiIIa3m8O-18">
          <mxGeometry width="50" height="50" relative="1" as="geometry">
            <mxPoint x="530" y="560" as="sourcePoint" />
            <mxPoint x="440" y="460" as="targetPoint" />
          </mxGeometry>
        </mxCell>
        <mxCell id="7c0A-dP-2c0LiIIa3m8O-20" value="" style="endArrow=none;html=1;rounded=0;" edge="1" parent="1">
          <mxGeometry width="50" height="50" relative="1" as="geometry">
            <mxPoint x="390" y="560" as="sourcePoint" />
            <mxPoint x="530" y="560" as="targetPoint" />
          </mxGeometry>
        </mxCell>
        <mxCell id="7c0A-dP-2c0LiIIa3m8O-21" value="for(int i=0; i&amp;lt;temp1; i++)" style="shape=hexagon;perimeter=hexagonPerimeter2;whiteSpace=wrap;html=1;fixedSize=1;" vertex="1" parent="1">
          <mxGeometry x="330" y="580" width="120" height="80" as="geometry" />
        </mxCell>
        <mxCell id="7c0A-dP-2c0LiIIa3m8O-22" value="" style="endArrow=classic;html=1;rounded=0;entryX=0.5;entryY=0;entryDx=0;entryDy=0;" edge="1" parent="1" target="7c0A-dP-2c0LiIIa3m8O-21">
          <mxGeometry width="50" height="50" relative="1" as="geometry">
            <mxPoint x="390" y="560" as="sourcePoint" />
            <mxPoint x="440" y="460" as="targetPoint" />
          </mxGeometry>
        </mxCell>
        <mxCell id="7c0A-dP-2c0LiIIa3m8O-23" value="if(mas[i]%3!=0)" style="rhombus;whiteSpace=wrap;html=1;" vertex="1" parent="1">
          <mxGeometry x="350" y="680" width="80" height="80" as="geometry" />
        </mxCell>
        <mxCell id="7c0A-dP-2c0LiIIa3m8O-24" value="mas2[N]=mas[i]&lt;br&gt;N=N+1" style="rounded=0;whiteSpace=wrap;html=1;" vertex="1" parent="1">
          <mxGeometry x="330" y="780" width="120" height="60" as="geometry" />
        </mxCell>
        <mxCell id="7c0A-dP-2c0LiIIa3m8O-25" value="" style="endArrow=none;html=1;rounded=0;exitX=0;exitY=0.5;exitDx=0;exitDy=0;" edge="1" parent="1" source="7c0A-dP-2c0LiIIa3m8O-23">
          <mxGeometry width="50" height="50" relative="1" as="geometry">
            <mxPoint x="390" y="690" as="sourcePoint" />
            <mxPoint x="300" y="720" as="targetPoint" />
          </mxGeometry>
        </mxCell>
        <mxCell id="7c0A-dP-2c0LiIIa3m8O-26" value="" style="endArrow=none;html=1;rounded=0;exitX=0;exitY=0.5;exitDx=0;exitDy=0;" edge="1" parent="1" source="7c0A-dP-2c0LiIIa3m8O-24">
          <mxGeometry width="50" height="50" relative="1" as="geometry">
            <mxPoint x="390" y="690" as="sourcePoint" />
            <mxPoint x="300" y="810" as="targetPoint" />
          </mxGeometry>
        </mxCell>
        <mxCell id="7c0A-dP-2c0LiIIa3m8O-27" value="" style="endArrow=none;html=1;rounded=0;" edge="1" parent="1">
          <mxGeometry width="50" height="50" relative="1" as="geometry">
            <mxPoint x="300" y="810" as="sourcePoint" />
            <mxPoint x="300" y="620" as="targetPoint" />
          </mxGeometry>
        </mxCell>
        <mxCell id="7c0A-dP-2c0LiIIa3m8O-28" value="" style="endArrow=classic;html=1;rounded=0;entryX=0;entryY=0.5;entryDx=0;entryDy=0;" edge="1" parent="1" target="7c0A-dP-2c0LiIIa3m8O-21">
          <mxGeometry width="50" height="50" relative="1" as="geometry">
            <mxPoint x="300" y="620" as="sourcePoint" />
            <mxPoint x="490" y="630" as="targetPoint" />
          </mxGeometry>
        </mxCell>
        <mxCell id="7c0A-dP-2c0LiIIa3m8O-29" value="" style="endArrow=none;html=1;rounded=0;" edge="1" parent="1">
          <mxGeometry width="50" height="50" relative="1" as="geometry">
            <mxPoint x="500" y="860" as="sourcePoint" />
            <mxPoint x="500" y="620" as="targetPoint" />
          </mxGeometry>
        </mxCell>
        <mxCell id="7c0A-dP-2c0LiIIa3m8O-30" value="" style="endArrow=none;html=1;rounded=0;exitX=1;exitY=0.5;exitDx=0;exitDy=0;" edge="1" parent="1" source="7c0A-dP-2c0LiIIa3m8O-21">
          <mxGeometry width="50" height="50" relative="1" as="geometry">
            <mxPoint x="440" y="680" as="sourcePoint" />
            <mxPoint x="500" y="620" as="targetPoint" />
          </mxGeometry>
        </mxCell>
        <mxCell id="7c0A-dP-2c0LiIIa3m8O-31" value="" style="endArrow=none;html=1;rounded=0;" edge="1" parent="1">
          <mxGeometry width="50" height="50" relative="1" as="geometry">
            <mxPoint x="390" y="860.800048828125" as="sourcePoint" />
            <mxPoint x="500" y="860" as="targetPoint" />
          </mxGeometry>
        </mxCell>
        <mxCell id="7c0A-dP-2c0LiIIa3m8O-37" value="" style="edgeStyle=orthogonalEdgeStyle;rounded=0;orthogonalLoop=1;jettySize=auto;html=1;" edge="1" parent="1" source="7c0A-dP-2c0LiIIa3m8O-32" target="7c0A-dP-2c0LiIIa3m8O-34">
          <mxGeometry relative="1" as="geometry" />
        </mxCell>
        <mxCell id="7c0A-dP-2c0LiIIa3m8O-32" value="for(int i=0; i&amp;lt;N; i++)" style="shape=hexagon;perimeter=hexagonPerimeter2;whiteSpace=wrap;html=1;fixedSize=1;" vertex="1" parent="1">
          <mxGeometry x="330" y="880" width="120" height="80" as="geometry" />
        </mxCell>
        <mxCell id="7c0A-dP-2c0LiIIa3m8O-33" value="" style="endArrow=classic;html=1;rounded=0;entryX=0.5;entryY=0;entryDx=0;entryDy=0;" edge="1" parent="1" target="7c0A-dP-2c0LiIIa3m8O-32">
          <mxGeometry width="50" height="50" relative="1" as="geometry">
            <mxPoint x="390" y="860" as="sourcePoint" />
            <mxPoint x="490" y="860" as="targetPoint" />
          </mxGeometry>
        </mxCell>
        <mxCell id="7c0A-dP-2c0LiIIa3m8O-38" value="" style="edgeStyle=orthogonalEdgeStyle;rounded=0;orthogonalLoop=1;jettySize=auto;html=1;" edge="1" parent="1" source="7c0A-dP-2c0LiIIa3m8O-34" target="7c0A-dP-2c0LiIIa3m8O-35">
          <mxGeometry relative="1" as="geometry" />
        </mxCell>
        <mxCell id="7c0A-dP-2c0LiIIa3m8O-34" value="if(mas2[i-1]&amp;lt;0&lt;br&gt;and i!=0)" style="rhombus;whiteSpace=wrap;html=1;" vertex="1" parent="1">
          <mxGeometry x="350" y="980" width="80" height="80" as="geometry" />
        </mxCell>
        <mxCell id="7c0A-dP-2c0LiIIa3m8O-35" value="Output mas2[i]+mas2[i-1]&lt;br&gt;+1" style="shape=parallelogram;perimeter=parallelogramPerimeter;whiteSpace=wrap;html=1;fixedSize=1;" vertex="1" parent="1">
          <mxGeometry x="330" y="1080" width="120" height="60" as="geometry" />
        </mxCell>
        <mxCell id="7c0A-dP-2c0LiIIa3m8O-36" value="mas2[i]" style="shape=parallelogram;perimeter=parallelogramPerimeter;whiteSpace=wrap;html=1;fixedSize=1;" vertex="1" parent="1">
          <mxGeometry x="220" y="990" width="120" height="60" as="geometry" />
        </mxCell>
        <mxCell id="7c0A-dP-2c0LiIIa3m8O-39" value="" style="endArrow=classic;html=1;rounded=0;entryX=1;entryY=0.5;entryDx=0;entryDy=0;exitX=0;exitY=0.5;exitDx=0;exitDy=0;" edge="1" parent="1" source="7c0A-dP-2c0LiIIa3m8O-34" target="7c0A-dP-2c0LiIIa3m8O-36">
          <mxGeometry width="50" height="50" relative="1" as="geometry">
            <mxPoint x="440" y="1040" as="sourcePoint" />
            <mxPoint x="490" y="990" as="targetPoint" />
          </mxGeometry>
        </mxCell>
        <mxCell id="7c0A-dP-2c0LiIIa3m8O-40" value="" style="endArrow=none;html=1;rounded=0;" edge="1" parent="1">
          <mxGeometry width="50" height="50" relative="1" as="geometry">
            <mxPoint x="200" y="1110" as="sourcePoint" />
            <mxPoint x="200" y="920" as="targetPoint" />
          </mxGeometry>
        </mxCell>
        <mxCell id="7c0A-dP-2c0LiIIa3m8O-41" value="" style="endArrow=none;html=1;rounded=0;exitX=0;exitY=0.5;exitDx=0;exitDy=0;" edge="1" parent="1" source="7c0A-dP-2c0LiIIa3m8O-36">
          <mxGeometry width="50" height="50" relative="1" as="geometry">
            <mxPoint x="440" y="1040" as="sourcePoint" />
            <mxPoint x="200" y="1020" as="targetPoint" />
          </mxGeometry>
        </mxCell>
        <mxCell id="7c0A-dP-2c0LiIIa3m8O-42" value="" style="endArrow=none;html=1;rounded=0;exitX=0;exitY=0.5;exitDx=0;exitDy=0;" edge="1" parent="1" source="7c0A-dP-2c0LiIIa3m8O-35">
          <mxGeometry width="50" height="50" relative="1" as="geometry">
            <mxPoint x="440" y="1040" as="sourcePoint" />
            <mxPoint x="200" y="1110" as="targetPoint" />
          </mxGeometry>
        </mxCell>
        <mxCell id="7c0A-dP-2c0LiIIa3m8O-43" value="" style="endArrow=classic;html=1;rounded=0;entryX=0;entryY=0.5;entryDx=0;entryDy=0;" edge="1" parent="1" target="7c0A-dP-2c0LiIIa3m8O-32">
          <mxGeometry width="50" height="50" relative="1" as="geometry">
            <mxPoint x="200" y="920" as="sourcePoint" />
            <mxPoint x="490" y="990" as="targetPoint" />
          </mxGeometry>
        </mxCell>
        <mxCell id="7c0A-dP-2c0LiIIa3m8O-44" value="End" style="ellipse;whiteSpace=wrap;html=1;" vertex="1" parent="1">
          <mxGeometry x="330" y="1169" width="120" height="40" as="geometry" />
        </mxCell>
        <mxCell id="7c0A-dP-2c0LiIIa3m8O-45" value="" style="endArrow=none;html=1;rounded=0;exitX=1;exitY=0.5;exitDx=0;exitDy=0;" edge="1" parent="1" source="7c0A-dP-2c0LiIIa3m8O-32">
          <mxGeometry width="50" height="50" relative="1" as="geometry">
            <mxPoint x="440" y="1040" as="sourcePoint" />
            <mxPoint x="500" y="920" as="targetPoint" />
          </mxGeometry>
        </mxCell>
        <mxCell id="7c0A-dP-2c0LiIIa3m8O-46" value="" style="endArrow=none;html=1;rounded=0;" edge="1" parent="1">
          <mxGeometry width="50" height="50" relative="1" as="geometry">
            <mxPoint x="500" y="1190" as="sourcePoint" />
            <mxPoint x="500" y="920" as="targetPoint" />
          </mxGeometry>
        </mxCell>
        <mxCell id="7c0A-dP-2c0LiIIa3m8O-47" value="" style="endArrow=classic;html=1;rounded=0;entryX=1;entryY=0.5;entryDx=0;entryDy=0;" edge="1" parent="1" target="7c0A-dP-2c0LiIIa3m8O-44">
          <mxGeometry width="50" height="50" relative="1" as="geometry">
            <mxPoint x="500" y="1190" as="sourcePoint" />
            <mxPoint x="490" y="990" as="targetPoint" />
          </mxGeometry>
        </mxCell>
        <mxCell id="7c0A-dP-2c0LiIIa3m8O-48" value="" style="endArrow=classic;html=1;rounded=0;exitX=1;exitY=0.5;exitDx=0;exitDy=0;entryX=0;entryY=0.5;entryDx=0;entryDy=0;" edge="1" parent="1" source="7c0A-dP-2c0LiIIa3m8O-3" target="7c0A-dP-2c0LiIIa3m8O-18">
          <mxGeometry width="50" height="50" relative="1" as="geometry">
            <mxPoint x="440" y="320" as="sourcePoint" />
            <mxPoint x="490" y="270" as="targetPoint" />
          </mxGeometry>
        </mxCell>
        <mxCell id="7c0A-dP-2c0LiIIa3m8O-49" value="True" style="text;html=1;strokeColor=none;fillColor=none;align=center;verticalAlign=middle;whiteSpace=wrap;rounded=0;" vertex="1" parent="1">
          <mxGeometry x="390" y="270" width="60" height="30" as="geometry" />
        </mxCell>
        <mxCell id="7c0A-dP-2c0LiIIa3m8O-50" value="True" style="text;html=1;strokeColor=none;fillColor=none;align=center;verticalAlign=middle;whiteSpace=wrap;rounded=0;" vertex="1" parent="1">
          <mxGeometry x="384" y="450" width="60" height="30" as="geometry" />
        </mxCell>
        <mxCell id="7c0A-dP-2c0LiIIa3m8O-51" value="True" style="text;html=1;strokeColor=none;fillColor=none;align=center;verticalAlign=middle;whiteSpace=wrap;rounded=0;" vertex="1" parent="1">
          <mxGeometry x="390" y="650" width="60" height="30" as="geometry" />
        </mxCell>
        <mxCell id="7c0A-dP-2c0LiIIa3m8O-52" value="" style="endArrow=classic;html=1;rounded=0;exitX=0.5;exitY=1;exitDx=0;exitDy=0;entryX=0.5;entryY=0;entryDx=0;entryDy=0;" edge="1" parent="1" source="7c0A-dP-2c0LiIIa3m8O-21" target="7c0A-dP-2c0LiIIa3m8O-23">
          <mxGeometry width="50" height="50" relative="1" as="geometry">
            <mxPoint x="440" y="570" as="sourcePoint" />
            <mxPoint x="490" y="520" as="targetPoint" />
          </mxGeometry>
        </mxCell>
        <mxCell id="7c0A-dP-2c0LiIIa3m8O-53" value="True" style="text;html=1;strokeColor=none;fillColor=none;align=center;verticalAlign=middle;whiteSpace=wrap;rounded=0;" vertex="1" parent="1">
          <mxGeometry x="384" y="750" width="60" height="30" as="geometry" />
        </mxCell>
        <mxCell id="7c0A-dP-2c0LiIIa3m8O-54" value="" style="endArrow=classic;html=1;rounded=0;exitX=0.5;exitY=1;exitDx=0;exitDy=0;entryX=0.5;entryY=0;entryDx=0;entryDy=0;" edge="1" parent="1" source="7c0A-dP-2c0LiIIa3m8O-23" target="7c0A-dP-2c0LiIIa3m8O-24">
          <mxGeometry width="50" height="50" relative="1" as="geometry">
            <mxPoint x="450" y="580" as="sourcePoint" />
            <mxPoint x="500" y="530" as="targetPoint" />
          </mxGeometry>
        </mxCell>
        <mxCell id="7c0A-dP-2c0LiIIa3m8O-55" value="True" style="text;html=1;strokeColor=none;fillColor=none;align=center;verticalAlign=middle;whiteSpace=wrap;rounded=0;" vertex="1" parent="1">
          <mxGeometry x="390" y="960" width="60" height="30" as="geometry" />
        </mxCell>
        <mxCell id="7c0A-dP-2c0LiIIa3m8O-56" value="True" style="text;html=1;strokeColor=none;fillColor=none;align=center;verticalAlign=middle;whiteSpace=wrap;rounded=0;" vertex="1" parent="1">
          <mxGeometry x="390" y="1050" width="60" height="30" as="geometry" />
        </mxCell>
        <mxCell id="7c0A-dP-2c0LiIIa3m8O-57" value="False" style="text;html=1;strokeColor=none;fillColor=none;align=center;verticalAlign=middle;whiteSpace=wrap;rounded=0;" vertex="1" parent="1">
          <mxGeometry x="420" y="190" width="60" height="30" as="geometry" />
        </mxCell>
        <mxCell id="7c0A-dP-2c0LiIIa3m8O-58" value="False" style="text;html=1;strokeColor=none;fillColor=none;align=center;verticalAlign=middle;whiteSpace=wrap;rounded=0;" vertex="1" parent="1">
          <mxGeometry x="310" y="390" width="60" height="30" as="geometry" />
        </mxCell>
        <mxCell id="7c0A-dP-2c0LiIIa3m8O-59" value="False" style="text;html=1;strokeColor=none;fillColor=none;align=center;verticalAlign=middle;whiteSpace=wrap;rounded=0;" vertex="1" parent="1">
          <mxGeometry x="444" y="590" width="60" height="30" as="geometry" />
        </mxCell>
        <mxCell id="7c0A-dP-2c0LiIIa3m8O-60" value="False" style="text;html=1;strokeColor=none;fillColor=none;align=center;verticalAlign=middle;whiteSpace=wrap;rounded=0;" vertex="1" parent="1">
          <mxGeometry x="310" y="690" width="60" height="30" as="geometry" />
        </mxCell>
        <mxCell id="7c0A-dP-2c0LiIIa3m8O-61" value="False" style="text;html=1;strokeColor=none;fillColor=none;align=center;verticalAlign=middle;whiteSpace=wrap;rounded=0;" vertex="1" parent="1">
          <mxGeometry x="324" y="980" width="60" height="30" as="geometry" />
        </mxCell>
        <mxCell id="7c0A-dP-2c0LiIIa3m8O-62" value="False" style="text;html=1;strokeColor=none;fillColor=none;align=center;verticalAlign=middle;whiteSpace=wrap;rounded=0;" vertex="1" parent="1">
          <mxGeometry x="440" y="890" width="60" height="30" as="geometry" />
        </mxCell>
      </root>
    </mxGraphModel>
  </diagram>
</mxfile>
